Abduction_states
version=1
nRows=7
nColumns=41
inDegrees=yes

# SIMM Motion File Header:
name Abduction_states
datacolumns 41
datarows 7
otherdata 1
range 0.00000000 1.16238813
endheader
time	/jointset/ground_thorax/thorax_tilt/value	/jointset/ground_thorax/thorax_tilt/speed	/jointset/ground_thorax/thorax_list/value	/jointset/ground_thorax/thorax_list/speed	/jointset/ground_thorax/thorax_rotation/value	/jointset/ground_thorax/thorax_rotation/speed	/jointset/ground_thorax/thorax_tx/value	/jointset/ground_thorax/thorax_tx/speed	/jointset/ground_thorax/thorax_ty/value	/jointset/ground_thorax/thorax_ty/speed	/jointset/ground_thorax/thorax_tz/value	/jointset/ground_thorax/thorax_tz/speed	/jointset/sternoclavicular/sternoclavicular_r2/value	/jointset/sternoclavicular/sternoclavicular_r2/speed	/jointset/sternoclavicular/sternoclavicular_r3/value	/jointset/sternoclavicular/sternoclavicular_r3/speed	/jointset/unrotscap/unrotscap_r3/value	/jointset/unrotscap/unrotscap_r3/speed	/jointset/unrotscap/unrotscap_r2/value	/jointset/unrotscap/unrotscap_r2/speed	/jointset/acromioclavicular/acromioclavicular_r2/value	/jointset/acromioclavicular/acromioclavicular_r2/speed	/jointset/acromioclavicular/acromioclavicular_r3/value	/jointset/acromioclavicular/acromioclavicular_r3/speed	/jointset/acromioclavicular/acromioclavicular_r1/value	/jointset/acromioclavicular/acromioclavicular_r1/speed	/jointset/unrothum/unrothum_r1/value	/jointset/unrothum/unrothum_r1/speed	/jointset/unrothum/unrothum_r3/value	/jointset/unrothum/unrothum_r3/speed	/jointset/unrothum/unrothum_r2/value	/jointset/unrothum/unrothum_r2/speed	/jointset/shoulder0/elv_angle/value	/jointset/shoulder0/elv_angle/speed	/jointset/shoulder1/shoulder_elv/value	/jointset/shoulder1/shoulder_elv/speed	/jointset/shoulder1/shoulder1_r2/value	/jointset/shoulder1/shoulder1_r2/speed	/jointset/shoulder2/shoulder_rot/value	/jointset/shoulder2/shoulder_rot/speed
      0.00000000	      0.00000000	      0.00000000	      0.00000000	      0.00000000	      0.00000000	      0.00000000	      0.00000000	      0.00000000	      0.00000000	      0.00000000	      0.00000000	      0.00000000	      0.00000000	      0.00000000	     -0.00000000	      0.00000000	      0.00000000	      0.00000000	     -0.00000000	      0.00000000	      0.00000000	      0.00000000	     -0.00000000	      0.00000000	     -0.00000000	      0.00000000	      0.00000000	      0.00000000	      0.00000000	      0.00000000	     -0.00000000	      0.00000000	     30.00000000	      0.00000000	     -0.00000000	      0.00000000	    -30.00000000	      0.00000000	      0.00000000	      0.00000000
      0.01000000	     -0.00000000	     -0.00000000	     -0.00000000	     -0.00000000	     -0.00000000	     -0.00000000	      0.00000000	      0.00000000	      0.00000000	      0.00000000	     -0.00000000	     -0.00000000	     -0.00065188	     -0.13035654	      0.00027611	      0.05521283	     -0.00027611	     -0.05521283	      0.00065188	      0.13035654	     -0.00013199	     -0.02639434	      0.00106670	      0.21330696	      0.00047949	      0.09588217	     -0.00047949	     -0.09588217	     -0.00106670	     -0.21330696	      0.00013199	      0.02639434	     30.00000000	      0.00000000	      0.00269376	      0.53866848	    -30.00000000	      0.00000000	      0.00000000	      0.00000000
      0.06000000	     -0.00000000	     -0.00000000	     -0.00000000	     -0.00000000	     -0.00000000	     -0.00000000	      0.00000000	      0.00000000	     -0.00000000	     -0.00000000	      0.00000000	      0.00000000	     -0.02343108	     -0.78030081	      0.00992429	      0.33049833	     -0.00992429	     -0.33049833	      0.02343108	      0.78030081	     -0.00474428	     -0.15799382	      0.03834110	      1.27683347	      0.01723445	      0.57394077	     -0.01723445	     -0.57394077	     -0.03834110	     -1.27683347	      0.00474428	      0.15799382	     30.00000000	     -0.00000000	      0.09682357	      3.22441403	    -30.00000000	     -0.00000000	     -0.00000000	     -0.00000000
      0.31000000	      0.00000000	      0.00000000	     -0.00000000	      0.00000000	     -0.00000000	     -0.00000000	      0.00000000	      0.00000000	      0.00000000	      0.00000000	      0.00000000	      0.00000000	     -0.62058150	     -3.98418281	      0.26284883	      1.68751047	     -0.26284883	     -1.68751047	      0.62058150	      3.98418281	     -0.12565416	     -0.80670976	      1.01547919	      6.51945753	      0.45646118	      2.93051723	     -0.45646118	     -2.93051723	     -1.01547919	     -6.51945753	      0.12565416	      0.80670976	     30.00000000	     -0.00000000	      2.56441066	     16.46372125	    -30.00000000	     -0.00000000	     -0.00000000	      0.00000000
      0.92844778	      0.00000000	      0.00000000	      0.00000000	      0.00000000	      0.00000000	      0.00000000	      0.00000000	      0.00000000	      0.00000000	     -0.00000000	     -0.00000000	      0.00000000	     -5.45781683	    -11.57899475	      2.31167179	      4.90431182	     -2.31167179	     -4.90431182	      5.45781683	     11.57899475	     -1.10508838	     -2.34449285	      8.93081636	     18.94711366	      4.01443081	      8.51678882	     -4.01443081	     -8.51678882	     -8.93081636	    -18.94711366	      1.10508838	      2.34449285	     30.00000000	      0.00000000	     22.55317568	     47.84753889	    -30.00000000	      0.00000000	     -0.00000000	     -0.00000000
      1.08435727	      0.00000000	     -0.00000000	      0.00000000	      0.00000000	      0.00000000	      0.00000000	      0.00000000	      0.00000000	      0.00000000	     -0.00000000	      0.00000000	      0.00000000	     -7.40672018	    -13.41594450	      3.13713462	      5.68235641	     -3.13713462	     -5.68235641	      7.40672018	     13.41594450	     -1.49969863	     -2.71643495	     12.11987501	     21.95297871	      5.44792298	      9.86793487	     -5.44792298	     -9.86793487	    -12.11987501	    -21.95297871	      1.49969863	      2.71643495	     30.00000000	     -0.00000000	     30.60657159	     55.43831219	    -30.00000000	      0.00000000	     -0.00000000	     -0.00000000
      1.16238813	      0.00000000	     -0.00000000	      0.00000000	      0.00000000	      0.00000000	      0.00000000	      0.00000000	     -0.00000000	      0.00000000	     -0.00000000	      0.00000000	      0.00000000	     -8.48901100	    -14.32268361	      3.59554157	      6.06640801	     -3.59554157	     -6.06640801	      8.48901100	     14.32268361	     -1.71883881	     -2.90002976	     13.89086529	     23.43670761	      6.24398883	     10.53487580	     -6.24398883	    -10.53487580	    -13.89086529	    -23.43670761	      1.71883881	      2.90002976	     30.00000000	     -0.00000000	     35.07889006	     59.18520354	    -30.00000000	      0.00000000	     -0.00000000	     -0.00000000
